<mxfile host="app.diagrams.net" modified="2020-11-27T09:48:08.892Z" agent="5.0 (Macintosh; Intel Mac OS X 10_14_6) AppleWebKit/537.36 (KHTML, like Gecko) Chrome/87.0.4280.67 Safari/537.36" etag="AwUFtq8Y0uR7usZD6-xv" version="13.10.4" type="github">
  <diagram name="Page-1" id="90a13364-a465-7bf4-72fc-28e22215d7a0">
    <mxGraphModel dx="788" dy="480" grid="1" gridSize="10" guides="1" tooltips="1" connect="1" arrows="1" fold="1" page="1" pageScale="1.5" pageWidth="1169" pageHeight="826" background="#ffffff" math="0" shadow="0">
      <root>
        <mxCell id="0" style=";html=1;" />
        <mxCell id="1" style=";html=1;" parent="0" />
        <mxCell id="ozlNwiNzSzBw2VRKPBTO-30" value="" style="ellipse;whiteSpace=wrap;html=1;strokeWidth=1;strokeColor=#660000;" vertex="1" parent="1">
          <mxGeometry x="750" y="122.5" width="50" height="45" as="geometry" />
        </mxCell>
        <mxCell id="ozlNwiNzSzBw2VRKPBTO-1" value="&lt;font style=&quot;font-size: 18px&quot; face=&quot;Comic Sans MS&quot;&gt;2 &amp;lt;&amp;lt; 3&lt;/font&gt;" style="text;html=1;strokeColor=none;fillColor=none;align=center;verticalAlign=middle;whiteSpace=wrap;rounded=0;" vertex="1" parent="1">
          <mxGeometry x="800" y="40" width="90" height="20" as="geometry" />
        </mxCell>
        <mxCell id="ozlNwiNzSzBw2VRKPBTO-6" value="" style="group" vertex="1" connectable="0" parent="1">
          <mxGeometry x="800" y="80" width="640" height="30" as="geometry" />
        </mxCell>
        <mxCell id="ozlNwiNzSzBw2VRKPBTO-2" value="" style="rounded=1;whiteSpace=wrap;html=1;strokeWidth=1;fillWeight=4;hachureGap=8;hachureAngle=45;fillColor=#d5e8d4;sketch=1;strokeColor=#82b366;" vertex="1" parent="ozlNwiNzSzBw2VRKPBTO-6">
          <mxGeometry width="640" height="30" as="geometry" />
        </mxCell>
        <mxCell id="ozlNwiNzSzBw2VRKPBTO-3" value="" style="line;strokeWidth=2;direction=south;html=1;strokeColor=#9AC7BF;" vertex="1" parent="ozlNwiNzSzBw2VRKPBTO-6">
          <mxGeometry x="274" width="90" height="30" as="geometry" />
        </mxCell>
        <mxCell id="ozlNwiNzSzBw2VRKPBTO-4" value="" style="line;strokeWidth=2;direction=south;html=1;strokeColor=#9AC7BF;" vertex="1" parent="ozlNwiNzSzBw2VRKPBTO-6">
          <mxGeometry x="116" width="90" height="30" as="geometry" />
        </mxCell>
        <mxCell id="ozlNwiNzSzBw2VRKPBTO-5" value="" style="line;strokeWidth=2;direction=south;html=1;strokeColor=#9AC7BF;" vertex="1" parent="ozlNwiNzSzBw2VRKPBTO-6">
          <mxGeometry x="436" width="90" height="30" as="geometry" />
        </mxCell>
        <mxCell id="ozlNwiNzSzBw2VRKPBTO-7" value="&lt;font style=&quot;font-size: 18px&quot; face=&quot;Comic Sans MS&quot;&gt;0 0 0 0 0 0 0 0&lt;/font&gt;" style="text;html=1;strokeColor=none;fillColor=none;align=center;verticalAlign=middle;whiteSpace=wrap;rounded=0;" vertex="1" parent="ozlNwiNzSzBw2VRKPBTO-6">
          <mxGeometry x="10" y="5" width="140" height="20" as="geometry" />
        </mxCell>
        <mxCell id="ozlNwiNzSzBw2VRKPBTO-14" value="&lt;font style=&quot;font-size: 18px&quot; face=&quot;Comic Sans MS&quot;&gt;0 0 0 0 0 0 0 0&lt;/font&gt;" style="text;html=1;strokeColor=none;fillColor=none;align=center;verticalAlign=middle;whiteSpace=wrap;rounded=0;" vertex="1" parent="ozlNwiNzSzBw2VRKPBTO-6">
          <mxGeometry x="170" y="5" width="140" height="20" as="geometry" />
        </mxCell>
        <mxCell id="ozlNwiNzSzBw2VRKPBTO-15" value="&lt;font style=&quot;font-size: 18px&quot; face=&quot;Comic Sans MS&quot;&gt;0 0 0 0 0 0 0 0&lt;/font&gt;" style="text;html=1;strokeColor=none;fillColor=none;align=center;verticalAlign=middle;whiteSpace=wrap;rounded=0;" vertex="1" parent="ozlNwiNzSzBw2VRKPBTO-6">
          <mxGeometry x="330" y="5" width="140" height="20" as="geometry" />
        </mxCell>
        <mxCell id="ozlNwiNzSzBw2VRKPBTO-16" value="&lt;font style=&quot;font-size: 18px&quot; face=&quot;Comic Sans MS&quot;&gt;0 0 0 0 0 0 1 0&lt;/font&gt;" style="text;html=1;strokeColor=none;fillColor=none;align=center;verticalAlign=middle;whiteSpace=wrap;rounded=0;" vertex="1" parent="ozlNwiNzSzBw2VRKPBTO-6">
          <mxGeometry x="490" y="5" width="140" height="20" as="geometry" />
        </mxCell>
        <mxCell id="ozlNwiNzSzBw2VRKPBTO-17" value="&lt;font style=&quot;font-size: 18px&quot; face=&quot;Comic Sans MS&quot;&gt;2&amp;nbsp;&lt;/font&gt;" style="text;html=1;strokeColor=none;fillColor=none;align=center;verticalAlign=middle;whiteSpace=wrap;rounded=0;" vertex="1" parent="1">
          <mxGeometry x="1450" y="85" width="40" height="20" as="geometry" />
        </mxCell>
        <mxCell id="ozlNwiNzSzBw2VRKPBTO-18" value="" style="group" vertex="1" connectable="0" parent="1">
          <mxGeometry x="800" y="130" width="640" height="45" as="geometry" />
        </mxCell>
        <mxCell id="ozlNwiNzSzBw2VRKPBTO-19" value="" style="rounded=1;whiteSpace=wrap;html=1;strokeWidth=1;fillWeight=4;hachureGap=8;hachureAngle=45;fillColor=#d5e8d4;sketch=1;strokeColor=#82b366;" vertex="1" parent="ozlNwiNzSzBw2VRKPBTO-18">
          <mxGeometry width="640" height="30" as="geometry" />
        </mxCell>
        <mxCell id="ozlNwiNzSzBw2VRKPBTO-20" value="" style="line;strokeWidth=2;direction=south;html=1;strokeColor=#9AC7BF;" vertex="1" parent="ozlNwiNzSzBw2VRKPBTO-18">
          <mxGeometry x="274" width="90" height="30" as="geometry" />
        </mxCell>
        <mxCell id="ozlNwiNzSzBw2VRKPBTO-21" value="" style="line;strokeWidth=2;direction=south;html=1;strokeColor=#9AC7BF;" vertex="1" parent="ozlNwiNzSzBw2VRKPBTO-18">
          <mxGeometry x="116" width="90" height="30" as="geometry" />
        </mxCell>
        <mxCell id="ozlNwiNzSzBw2VRKPBTO-22" value="" style="line;strokeWidth=2;direction=south;html=1;strokeColor=#9AC7BF;" vertex="1" parent="ozlNwiNzSzBw2VRKPBTO-18">
          <mxGeometry x="436" width="90" height="30" as="geometry" />
        </mxCell>
        <mxCell id="ozlNwiNzSzBw2VRKPBTO-23" value="&lt;font style=&quot;font-size: 18px&quot; face=&quot;Comic Sans MS&quot;&gt;&lt;font color=&quot;#660000&quot;&gt;0 0 0&lt;/font&gt; 0 0 0 0 0&lt;/font&gt;" style="text;html=1;strokeColor=none;fillColor=none;align=center;verticalAlign=middle;whiteSpace=wrap;rounded=0;" vertex="1" parent="ozlNwiNzSzBw2VRKPBTO-18">
          <mxGeometry x="-54" y="5" width="140" height="20" as="geometry" />
        </mxCell>
        <mxCell id="ozlNwiNzSzBw2VRKPBTO-24" value="&lt;font style=&quot;font-size: 18px&quot; face=&quot;Comic Sans MS&quot;&gt;0 0 0 0 0 0 0 0&lt;/font&gt;" style="text;html=1;strokeColor=none;fillColor=none;align=center;verticalAlign=middle;whiteSpace=wrap;rounded=0;" vertex="1" parent="ozlNwiNzSzBw2VRKPBTO-18">
          <mxGeometry x="107" y="5" width="140" height="20" as="geometry" />
        </mxCell>
        <mxCell id="ozlNwiNzSzBw2VRKPBTO-25" value="&lt;font style=&quot;font-size: 18px&quot; face=&quot;Comic Sans MS&quot;&gt;0 0 0 0 0 0 0 0&lt;/font&gt;" style="text;html=1;strokeColor=none;fillColor=none;align=center;verticalAlign=middle;whiteSpace=wrap;rounded=0;" vertex="1" parent="ozlNwiNzSzBw2VRKPBTO-18">
          <mxGeometry x="264" y="5" width="140" height="20" as="geometry" />
        </mxCell>
        <mxCell id="ozlNwiNzSzBw2VRKPBTO-26" value="&lt;font style=&quot;font-size: 18px&quot; face=&quot;Comic Sans MS&quot;&gt;0 0 0 0 0 0 1 0&lt;/font&gt;" style="text;html=1;strokeColor=none;fillColor=none;align=center;verticalAlign=middle;whiteSpace=wrap;rounded=0;" vertex="1" parent="ozlNwiNzSzBw2VRKPBTO-18">
          <mxGeometry x="426" y="5" width="140" height="20" as="geometry" />
        </mxCell>
        <mxCell id="ozlNwiNzSzBw2VRKPBTO-28" value="&lt;font style=&quot;font-size: 18px&quot; face=&quot;Comic Sans MS&quot; color=&quot;#6666ff&quot;&gt;0 0 0&lt;/font&gt;" style="text;html=1;strokeColor=none;fillColor=none;align=center;verticalAlign=middle;whiteSpace=wrap;rounded=0;" vertex="1" parent="ozlNwiNzSzBw2VRKPBTO-18">
          <mxGeometry x="574" y="5" width="50" height="20" as="geometry" />
        </mxCell>
        <mxCell id="ozlNwiNzSzBw2VRKPBTO-27" value="&lt;font style=&quot;font-size: 18px&quot; face=&quot;Comic Sans MS&quot;&gt;16&lt;/font&gt;" style="text;html=1;strokeColor=none;fillColor=none;align=center;verticalAlign=middle;whiteSpace=wrap;rounded=0;" vertex="1" parent="1">
          <mxGeometry x="1450" y="135" width="40" height="20" as="geometry" />
        </mxCell>
        <mxCell id="ozlNwiNzSzBw2VRKPBTO-31" value="" style="endArrow=classic;html=1;" edge="1" parent="1">
          <mxGeometry width="50" height="50" relative="1" as="geometry">
            <mxPoint x="750" y="150" as="sourcePoint" />
            <mxPoint x="700" y="110" as="targetPoint" />
            <Array as="points">
              <mxPoint x="740" y="160" />
              <mxPoint x="730" y="160" />
              <mxPoint x="720" y="150" />
              <mxPoint x="720" y="140" />
              <mxPoint x="740" y="140" />
              <mxPoint x="740" y="130" />
              <mxPoint x="730" y="110" />
              <mxPoint x="720" y="120" />
            </Array>
          </mxGeometry>
        </mxCell>
        <mxCell id="ozlNwiNzSzBw2VRKPBTO-32" value="&lt;font style=&quot;font-size: 18px&quot; face=&quot;Comic Sans MS&quot;&gt;16 &amp;gt;&amp;gt; 3&lt;/font&gt;" style="text;html=1;strokeColor=none;fillColor=none;align=center;verticalAlign=middle;whiteSpace=wrap;rounded=0;" vertex="1" parent="1">
          <mxGeometry x="800" y="220" width="90" height="20" as="geometry" />
        </mxCell>
        <mxCell id="ozlNwiNzSzBw2VRKPBTO-59" value="" style="group" vertex="1" connectable="0" parent="1">
          <mxGeometry x="799" y="250" width="640" height="30" as="geometry" />
        </mxCell>
        <mxCell id="ozlNwiNzSzBw2VRKPBTO-60" value="" style="rounded=1;whiteSpace=wrap;html=1;strokeWidth=1;fillWeight=4;hachureGap=8;hachureAngle=45;fillColor=#d5e8d4;sketch=1;strokeColor=#82b366;" vertex="1" parent="ozlNwiNzSzBw2VRKPBTO-59">
          <mxGeometry width="640" height="30" as="geometry" />
        </mxCell>
        <mxCell id="ozlNwiNzSzBw2VRKPBTO-61" value="" style="line;strokeWidth=2;direction=south;html=1;strokeColor=#9AC7BF;" vertex="1" parent="ozlNwiNzSzBw2VRKPBTO-59">
          <mxGeometry x="274" width="90" height="30" as="geometry" />
        </mxCell>
        <mxCell id="ozlNwiNzSzBw2VRKPBTO-62" value="" style="line;strokeWidth=2;direction=south;html=1;strokeColor=#9AC7BF;" vertex="1" parent="ozlNwiNzSzBw2VRKPBTO-59">
          <mxGeometry x="116" width="90" height="30" as="geometry" />
        </mxCell>
        <mxCell id="ozlNwiNzSzBw2VRKPBTO-63" value="" style="line;strokeWidth=2;direction=south;html=1;strokeColor=#9AC7BF;" vertex="1" parent="ozlNwiNzSzBw2VRKPBTO-59">
          <mxGeometry x="436" width="90" height="30" as="geometry" />
        </mxCell>
        <mxCell id="ozlNwiNzSzBw2VRKPBTO-64" value="&lt;font style=&quot;font-size: 18px&quot; face=&quot;Comic Sans MS&quot;&gt;0 0 0 0 0 0 0 0&lt;/font&gt;" style="text;html=1;strokeColor=none;fillColor=none;align=center;verticalAlign=middle;whiteSpace=wrap;rounded=0;" vertex="1" parent="ozlNwiNzSzBw2VRKPBTO-59">
          <mxGeometry x="10" y="5" width="140" height="20" as="geometry" />
        </mxCell>
        <mxCell id="ozlNwiNzSzBw2VRKPBTO-65" value="&lt;font style=&quot;font-size: 18px&quot; face=&quot;Comic Sans MS&quot;&gt;0 0 0 0 0 0 0 0&lt;/font&gt;" style="text;html=1;strokeColor=none;fillColor=none;align=center;verticalAlign=middle;whiteSpace=wrap;rounded=0;" vertex="1" parent="ozlNwiNzSzBw2VRKPBTO-59">
          <mxGeometry x="170" y="5" width="140" height="20" as="geometry" />
        </mxCell>
        <mxCell id="ozlNwiNzSzBw2VRKPBTO-66" value="&lt;font style=&quot;font-size: 18px&quot; face=&quot;Comic Sans MS&quot;&gt;0 0 0 0 0 0 0 0&lt;/font&gt;" style="text;html=1;strokeColor=none;fillColor=none;align=center;verticalAlign=middle;whiteSpace=wrap;rounded=0;" vertex="1" parent="ozlNwiNzSzBw2VRKPBTO-59">
          <mxGeometry x="330" y="5" width="140" height="20" as="geometry" />
        </mxCell>
        <mxCell id="ozlNwiNzSzBw2VRKPBTO-67" value="&lt;font style=&quot;font-size: 18px&quot; face=&quot;Comic Sans MS&quot;&gt;0 0 0 1 0 0 0 0&lt;/font&gt;" style="text;html=1;strokeColor=none;fillColor=none;align=center;verticalAlign=middle;whiteSpace=wrap;rounded=0;" vertex="1" parent="ozlNwiNzSzBw2VRKPBTO-59">
          <mxGeometry x="490" y="5" width="140" height="20" as="geometry" />
        </mxCell>
        <mxCell id="ozlNwiNzSzBw2VRKPBTO-68" value="&lt;font style=&quot;font-size: 18px&quot; face=&quot;Comic Sans MS&quot;&gt;16&lt;/font&gt;" style="text;html=1;strokeColor=none;fillColor=none;align=center;verticalAlign=middle;whiteSpace=wrap;rounded=0;" vertex="1" parent="1">
          <mxGeometry x="1449" y="255" width="40" height="20" as="geometry" />
        </mxCell>
        <mxCell id="ozlNwiNzSzBw2VRKPBTO-79" value="&lt;font style=&quot;font-size: 18px&quot; face=&quot;Comic Sans MS&quot;&gt;2&lt;/font&gt;" style="text;html=1;strokeColor=none;fillColor=none;align=center;verticalAlign=middle;whiteSpace=wrap;rounded=0;" vertex="1" parent="1">
          <mxGeometry x="1490" y="305" width="40" height="20" as="geometry" />
        </mxCell>
        <mxCell id="ozlNwiNzSzBw2VRKPBTO-81" value="&lt;font style=&quot;font-size: 18px&quot; face=&quot;Comic Sans MS&quot;&gt;-16 &amp;gt;&amp;gt; 3&lt;/font&gt;" style="text;html=1;strokeColor=none;fillColor=none;align=center;verticalAlign=middle;whiteSpace=wrap;rounded=0;" vertex="1" parent="1">
          <mxGeometry x="799" y="370" width="90" height="20" as="geometry" />
        </mxCell>
        <mxCell id="ozlNwiNzSzBw2VRKPBTO-82" value="" style="group" vertex="1" connectable="0" parent="1">
          <mxGeometry x="800" y="300" width="640" height="30" as="geometry" />
        </mxCell>
        <mxCell id="ozlNwiNzSzBw2VRKPBTO-83" value="" style="rounded=1;whiteSpace=wrap;html=1;strokeWidth=1;fillWeight=4;hachureGap=8;hachureAngle=45;fillColor=#d5e8d4;sketch=1;strokeColor=#82b366;" vertex="1" parent="ozlNwiNzSzBw2VRKPBTO-82">
          <mxGeometry width="640" height="30" as="geometry" />
        </mxCell>
        <mxCell id="ozlNwiNzSzBw2VRKPBTO-84" value="" style="line;strokeWidth=2;direction=south;html=1;strokeColor=#9AC7BF;" vertex="1" parent="ozlNwiNzSzBw2VRKPBTO-82">
          <mxGeometry x="274" width="90" height="30" as="geometry" />
        </mxCell>
        <mxCell id="ozlNwiNzSzBw2VRKPBTO-85" value="" style="line;strokeWidth=2;direction=south;html=1;strokeColor=#9AC7BF;" vertex="1" parent="ozlNwiNzSzBw2VRKPBTO-82">
          <mxGeometry x="116" width="90" height="30" as="geometry" />
        </mxCell>
        <mxCell id="ozlNwiNzSzBw2VRKPBTO-86" value="" style="line;strokeWidth=2;direction=south;html=1;strokeColor=#9AC7BF;" vertex="1" parent="ozlNwiNzSzBw2VRKPBTO-82">
          <mxGeometry x="436" width="90" height="30" as="geometry" />
        </mxCell>
        <mxCell id="ozlNwiNzSzBw2VRKPBTO-87" value="&lt;font style=&quot;font-size: 18px&quot; face=&quot;Comic Sans MS&quot;&gt;0 0 0 0 0 0 0 0&lt;/font&gt;" style="text;html=1;strokeColor=none;fillColor=none;align=center;verticalAlign=middle;whiteSpace=wrap;rounded=0;" vertex="1" parent="ozlNwiNzSzBw2VRKPBTO-82">
          <mxGeometry x="75" y="5" width="140" height="20" as="geometry" />
        </mxCell>
        <mxCell id="ozlNwiNzSzBw2VRKPBTO-88" value="&lt;font style=&quot;font-size: 18px&quot; face=&quot;Comic Sans MS&quot;&gt;0 0 0 0 0 0 0 0&lt;/font&gt;" style="text;html=1;strokeColor=none;fillColor=none;align=center;verticalAlign=middle;whiteSpace=wrap;rounded=0;" vertex="1" parent="ozlNwiNzSzBw2VRKPBTO-82">
          <mxGeometry x="233" y="5" width="140" height="20" as="geometry" />
        </mxCell>
        <mxCell id="ozlNwiNzSzBw2VRKPBTO-89" value="&lt;font style=&quot;font-size: 18px&quot; face=&quot;Comic Sans MS&quot;&gt;0 0 0 0 0 0 0 0&lt;/font&gt;" style="text;html=1;strokeColor=none;fillColor=none;align=center;verticalAlign=middle;whiteSpace=wrap;rounded=0;" vertex="1" parent="ozlNwiNzSzBw2VRKPBTO-82">
          <mxGeometry x="395" y="5" width="140" height="20" as="geometry" />
        </mxCell>
        <mxCell id="ozlNwiNzSzBw2VRKPBTO-91" value="&lt;font style=&quot;font-size: 18px&quot; face=&quot;Comic Sans MS&quot; color=&quot;#6666ff&quot;&gt;0 0 0&lt;/font&gt;" style="text;html=1;strokeColor=none;fillColor=none;align=center;verticalAlign=middle;whiteSpace=wrap;rounded=0;" vertex="1" parent="ozlNwiNzSzBw2VRKPBTO-82">
          <mxGeometry x="20" y="5" width="50" height="20" as="geometry" />
        </mxCell>
        <mxCell id="ozlNwiNzSzBw2VRKPBTO-90" value="&lt;font style=&quot;font-size: 18px&quot; face=&quot;Comic Sans MS&quot;&gt;0 0 0 1 0&lt;font color=&quot;#660000&quot;&gt; 0 0 0&lt;/font&gt;&lt;/font&gt;" style="text;html=1;strokeColor=none;fillColor=none;align=center;verticalAlign=middle;whiteSpace=wrap;rounded=0;" vertex="1" parent="1">
          <mxGeometry x="1357" y="305" width="140" height="20" as="geometry" />
        </mxCell>
        <mxCell id="ozlNwiNzSzBw2VRKPBTO-92" value="" style="group" vertex="1" connectable="0" parent="1">
          <mxGeometry x="800" y="400" width="640" height="30" as="geometry" />
        </mxCell>
        <mxCell id="ozlNwiNzSzBw2VRKPBTO-93" value="" style="rounded=1;whiteSpace=wrap;html=1;strokeWidth=1;fillWeight=4;hachureGap=8;hachureAngle=45;fillColor=#d5e8d4;sketch=1;strokeColor=#82b366;" vertex="1" parent="ozlNwiNzSzBw2VRKPBTO-92">
          <mxGeometry width="640" height="30" as="geometry" />
        </mxCell>
        <mxCell id="ozlNwiNzSzBw2VRKPBTO-94" value="" style="line;strokeWidth=2;direction=south;html=1;strokeColor=#9AC7BF;" vertex="1" parent="ozlNwiNzSzBw2VRKPBTO-92">
          <mxGeometry x="274" width="90" height="30" as="geometry" />
        </mxCell>
        <mxCell id="ozlNwiNzSzBw2VRKPBTO-95" value="" style="line;strokeWidth=2;direction=south;html=1;strokeColor=#9AC7BF;" vertex="1" parent="ozlNwiNzSzBw2VRKPBTO-92">
          <mxGeometry x="116" width="90" height="30" as="geometry" />
        </mxCell>
        <mxCell id="ozlNwiNzSzBw2VRKPBTO-96" value="" style="line;strokeWidth=2;direction=south;html=1;strokeColor=#9AC7BF;" vertex="1" parent="ozlNwiNzSzBw2VRKPBTO-92">
          <mxGeometry x="436" width="90" height="30" as="geometry" />
        </mxCell>
        <mxCell id="ozlNwiNzSzBw2VRKPBTO-97" value="&lt;font style=&quot;font-size: 18px&quot; face=&quot;Comic Sans MS&quot;&gt;1&amp;nbsp; 1&amp;nbsp; 1&amp;nbsp; 1&amp;nbsp; 1&amp;nbsp; 1&amp;nbsp; 1&amp;nbsp; 1&lt;/font&gt;" style="text;html=1;strokeColor=none;fillColor=none;align=center;verticalAlign=middle;whiteSpace=wrap;rounded=0;" vertex="1" parent="ozlNwiNzSzBw2VRKPBTO-92">
          <mxGeometry x="8" y="5" width="150" height="20" as="geometry" />
        </mxCell>
        <mxCell id="ozlNwiNzSzBw2VRKPBTO-100" value="&lt;font style=&quot;font-size: 18px&quot; face=&quot;Comic Sans MS&quot;&gt;1&amp;nbsp; 1&amp;nbsp; 1&amp;nbsp; 1 0 0 0 0&lt;/font&gt;" style="text;html=1;strokeColor=none;fillColor=none;align=center;verticalAlign=middle;whiteSpace=wrap;rounded=0;" vertex="1" parent="ozlNwiNzSzBw2VRKPBTO-92">
          <mxGeometry x="490" y="5" width="140" height="20" as="geometry" />
        </mxCell>
        <mxCell id="ozlNwiNzSzBw2VRKPBTO-109" value="&lt;font style=&quot;font-size: 18px&quot; face=&quot;Comic Sans MS&quot;&gt;1&amp;nbsp; 1&amp;nbsp; 1&amp;nbsp; 1&amp;nbsp; 1&amp;nbsp; 1&amp;nbsp; 1&amp;nbsp; 1&lt;/font&gt;" style="text;html=1;strokeColor=none;fillColor=none;align=center;verticalAlign=middle;whiteSpace=wrap;rounded=0;" vertex="1" parent="ozlNwiNzSzBw2VRKPBTO-92">
          <mxGeometry x="166" y="5" width="150" height="20" as="geometry" />
        </mxCell>
        <mxCell id="ozlNwiNzSzBw2VRKPBTO-110" value="&lt;font style=&quot;font-size: 18px&quot; face=&quot;Comic Sans MS&quot;&gt;1&amp;nbsp; 1&amp;nbsp; 1&amp;nbsp; 1&amp;nbsp; 1&amp;nbsp; 1&amp;nbsp; 1&amp;nbsp; 1&lt;/font&gt;" style="text;html=1;strokeColor=none;fillColor=none;align=center;verticalAlign=middle;whiteSpace=wrap;rounded=0;" vertex="1" parent="ozlNwiNzSzBw2VRKPBTO-92">
          <mxGeometry x="323" y="5" width="150" height="20" as="geometry" />
        </mxCell>
        <mxCell id="ozlNwiNzSzBw2VRKPBTO-101" value="&lt;font style=&quot;font-size: 18px&quot; face=&quot;Comic Sans MS&quot;&gt;-16&lt;/font&gt;" style="text;html=1;strokeColor=none;fillColor=none;align=center;verticalAlign=middle;whiteSpace=wrap;rounded=0;" vertex="1" parent="1">
          <mxGeometry x="1450" y="405" width="40" height="20" as="geometry" />
        </mxCell>
        <mxCell id="ozlNwiNzSzBw2VRKPBTO-111" value="" style="group" vertex="1" connectable="0" parent="1">
          <mxGeometry x="800" y="450" width="640" height="30" as="geometry" />
        </mxCell>
        <mxCell id="ozlNwiNzSzBw2VRKPBTO-112" value="" style="rounded=1;whiteSpace=wrap;html=1;strokeWidth=1;fillWeight=4;hachureGap=8;hachureAngle=45;fillColor=#d5e8d4;sketch=1;strokeColor=#82b366;" vertex="1" parent="ozlNwiNzSzBw2VRKPBTO-111">
          <mxGeometry width="640" height="30" as="geometry" />
        </mxCell>
        <mxCell id="ozlNwiNzSzBw2VRKPBTO-113" value="" style="line;strokeWidth=2;direction=south;html=1;strokeColor=#9AC7BF;" vertex="1" parent="ozlNwiNzSzBw2VRKPBTO-111">
          <mxGeometry x="274" width="90" height="30" as="geometry" />
        </mxCell>
        <mxCell id="ozlNwiNzSzBw2VRKPBTO-114" value="" style="line;strokeWidth=2;direction=south;html=1;strokeColor=#9AC7BF;" vertex="1" parent="ozlNwiNzSzBw2VRKPBTO-111">
          <mxGeometry x="116" width="90" height="30" as="geometry" />
        </mxCell>
        <mxCell id="ozlNwiNzSzBw2VRKPBTO-115" value="" style="line;strokeWidth=2;direction=south;html=1;strokeColor=#9AC7BF;" vertex="1" parent="ozlNwiNzSzBw2VRKPBTO-111">
          <mxGeometry x="436" width="90" height="30" as="geometry" />
        </mxCell>
        <mxCell id="ozlNwiNzSzBw2VRKPBTO-116" value="&lt;font style=&quot;font-size: 18px&quot; face=&quot;Comic Sans MS&quot;&gt;1&amp;nbsp; 1&amp;nbsp; 1&amp;nbsp; 1&amp;nbsp; 1&amp;nbsp; 1&amp;nbsp; 1&amp;nbsp; 1&lt;/font&gt;" style="text;html=1;strokeColor=none;fillColor=none;align=center;verticalAlign=middle;whiteSpace=wrap;rounded=0;" vertex="1" parent="ozlNwiNzSzBw2VRKPBTO-111">
          <mxGeometry x="70" y="5" width="150" height="20" as="geometry" />
        </mxCell>
        <mxCell id="ozlNwiNzSzBw2VRKPBTO-117" value="&lt;font style=&quot;font-size: 18px&quot; face=&quot;Comic Sans MS&quot;&gt;1&amp;nbsp; 1&amp;nbsp; 1&amp;nbsp; 1 0 &lt;font color=&quot;#660000&quot;&gt;0 0 0&lt;/font&gt;&lt;/font&gt;" style="text;html=1;strokeColor=none;fillColor=none;align=center;verticalAlign=middle;whiteSpace=wrap;rounded=0;" vertex="1" parent="ozlNwiNzSzBw2VRKPBTO-111">
          <mxGeometry x="552" y="5" width="140" height="20" as="geometry" />
        </mxCell>
        <mxCell id="ozlNwiNzSzBw2VRKPBTO-118" value="&lt;font style=&quot;font-size: 18px&quot; face=&quot;Comic Sans MS&quot;&gt;1&amp;nbsp; 1&amp;nbsp; 1&amp;nbsp; 1&amp;nbsp; 1&amp;nbsp; 1&amp;nbsp; 1&amp;nbsp; 1&lt;/font&gt;" style="text;html=1;strokeColor=none;fillColor=none;align=center;verticalAlign=middle;whiteSpace=wrap;rounded=0;" vertex="1" parent="ozlNwiNzSzBw2VRKPBTO-111">
          <mxGeometry x="227" y="5" width="150" height="20" as="geometry" />
        </mxCell>
        <mxCell id="ozlNwiNzSzBw2VRKPBTO-119" value="&lt;font style=&quot;font-size: 18px&quot; face=&quot;Comic Sans MS&quot;&gt;1&amp;nbsp; 1&amp;nbsp; 1&amp;nbsp; 1&amp;nbsp; 1&amp;nbsp; 1&amp;nbsp; 1&amp;nbsp; 1&lt;/font&gt;" style="text;html=1;strokeColor=none;fillColor=none;align=center;verticalAlign=middle;whiteSpace=wrap;rounded=0;" vertex="1" parent="ozlNwiNzSzBw2VRKPBTO-111">
          <mxGeometry x="388" y="5" width="150" height="20" as="geometry" />
        </mxCell>
        <mxCell id="ozlNwiNzSzBw2VRKPBTO-121" value="&lt;font style=&quot;font-size: 18px&quot; face=&quot;Comic Sans MS&quot; color=&quot;#6666ff&quot;&gt;1&amp;nbsp; 1&amp;nbsp; 1&lt;/font&gt;" style="text;html=1;strokeColor=none;fillColor=none;align=center;verticalAlign=middle;whiteSpace=wrap;rounded=0;" vertex="1" parent="ozlNwiNzSzBw2VRKPBTO-111">
          <mxGeometry x="10" y="5" width="50" height="20" as="geometry" />
        </mxCell>
        <mxCell id="ozlNwiNzSzBw2VRKPBTO-120" value="&lt;font style=&quot;font-size: 18px&quot; face=&quot;Comic Sans MS&quot;&gt;-2&lt;/font&gt;" style="text;html=1;strokeColor=none;fillColor=none;align=center;verticalAlign=middle;whiteSpace=wrap;rounded=0;" vertex="1" parent="1">
          <mxGeometry x="1497" y="450" width="40" height="20" as="geometry" />
        </mxCell>
      </root>
    </mxGraphModel>
  </diagram>
</mxfile>
